<?xml version="1.0" encoding="UTF-8" standalone="no"?>
<!DOCTYPE svg PUBLIC "-//W3C//DTD SVG 1.1//EN"
 "http://www.w3.org/Graphics/SVG/1.1/DTD/svg11.dtd">
<!-- Generated by graphviz version 2.40.1 (20161225.0304)
 -->
<!-- Title: G Pages: 1 -->
<svg width="894pt" height="218pt"
 viewBox="0.00 0.00 894.00 218.00" xmlns="http://www.w3.org/2000/svg" xmlns:xlink="http://www.w3.org/1999/xlink">
<g id="graph0" class="graph" transform="scale(1 1) rotate(0) translate(4 214)">
<title>G</title>
<polygon fill="#ffffff" stroke="transparent" points="-4,4 -4,-214 890,-214 890,4 -4,4"/>
<!-- A0 -->
<g id="node1" class="node">
<title>A0</title>
<polygon fill="none" stroke="#000000" points="54,-114 0,-114 0,-78 54,-78 54,-114"/>
<text text-anchor="middle" x="27" y="-93" font-family="Helvetica,sans-Serif" font-size="10.00" fill="#000000">a</text>
</g>
<!-- A1 -->
<g id="node2" class="node">
<title>A1</title>
<polygon fill="none" stroke="#000000" points="158,-195 104,-195 104,-159 158,-159 158,-195"/>
<text text-anchor="middle" x="131" y="-174" font-family="Helvetica,sans-Serif" font-size="10.00" fill="#000000">A</text>
</g>
<!-- A0&#45;&gt;A1 -->
<g id="edge1" class="edge">
<title>A0&#45;&gt;A1</title>
<path fill="none" stroke="#000000" d="M58.3262,-120.3983C74.2102,-132.7695 93.1683,-147.535 107.7383,-158.8827"/>
<polygon fill="none" stroke="#000000" points="60.3797,-117.5614 50.3396,-114.178 56.0784,-123.084 60.3797,-117.5614"/>
</g>
<!-- A2 -->
<g id="node3" class="node">
<title>A2</title>
<polygon fill="none" stroke="#000000" points="158,-141 104,-141 104,-105 158,-105 158,-141"/>
<text text-anchor="middle" x="131" y="-120" font-family="Helvetica,sans-Serif" font-size="10.00" fill="#000000">b</text>
</g>
<!-- A0&#45;&gt;A2 -->
<g id="edge2" class="edge">
<title>A0&#45;&gt;A2</title>
<path fill="none" stroke="#000000" d="M54.0533,-103.0234C66.2351,-106.186 80.8107,-109.9701 93.9837,-113.39"/>
<polygon fill="#000000" stroke="#000000" points="103.7209,-115.9179 92.9109,-117.7606 98.8813,-114.6615 94.0417,-113.405 94.0417,-113.405 94.0417,-113.405 98.8813,-114.6615 95.1726,-109.0494 103.7209,-115.9179 103.7209,-115.9179"/>
</g>
<!-- A8 -->
<g id="node9" class="node">
<title>A8</title>
<polygon fill="none" stroke="#000000" points="158,-87 104,-87 104,-51 158,-51 158,-87"/>
<text text-anchor="middle" x="131" y="-66" font-family="Helvetica,sans-Serif" font-size="10.00" fill="#000000">b2</text>
</g>
<!-- A0&#45;&gt;A8 -->
<g id="edge8" class="edge">
<title>A0&#45;&gt;A8</title>
<path fill="none" stroke="#000000" d="M54.0533,-88.9766C66.2351,-85.814 80.8107,-82.0299 93.9837,-78.61"/>
<polygon fill="#000000" stroke="#000000" points="103.7209,-76.0821 95.1726,-82.9506 98.8813,-77.3385 94.0417,-78.595 94.0417,-78.595 94.0417,-78.595 98.8813,-77.3385 92.9109,-74.2394 103.7209,-76.0821 103.7209,-76.0821"/>
</g>
<!-- A3 -->
<g id="node4" class="node">
<title>A3</title>
<polygon fill="none" stroke="#000000" points="262,-164 208,-164 208,-128 262,-128 262,-164"/>
<text text-anchor="middle" x="235" y="-143" font-family="Helvetica,sans-Serif" font-size="10.00" fill="#000000">c</text>
</g>
<!-- A2&#45;&gt;A3 -->
<g id="edge3" class="edge">
<title>A2&#45;&gt;A3</title>
<path fill="none" stroke="#000000" d="M158.0533,-128.9829C170.1157,-131.6506 184.5252,-134.8373 197.5959,-137.7279"/>
<polygon fill="#000000" stroke="#000000" points="207.7209,-139.9671 196.9851,-142.2015 202.8388,-138.8874 197.9568,-137.8077 197.9568,-137.8077 197.9568,-137.8077 202.8388,-138.8874 198.9286,-133.4138 207.7209,-139.9671 207.7209,-139.9671"/>
</g>
<!-- A4 -->
<g id="node5" class="node">
<title>A4</title>
<polygon fill="none" stroke="#000000" points="366,-210 312,-210 312,-174 366,-174 366,-210"/>
<text text-anchor="middle" x="339" y="-189" font-family="Helvetica,sans-Serif" font-size="10.00" fill="#000000">d</text>
</g>
<!-- A3&#45;&gt;A4 -->
<g id="edge4" class="edge">
<title>A3&#45;&gt;A4</title>
<path fill="none" stroke="#000000" d="M262.0533,-157.9659C274.3545,-163.4068 289.0968,-169.9274 302.3707,-175.7986"/>
<polygon fill="#000000" stroke="#000000" points="311.7209,-179.9342 300.7552,-180.0045 307.1482,-177.9117 302.5755,-175.8891 302.5755,-175.8891 302.5755,-175.8891 307.1482,-177.9117 304.3958,-171.7737 311.7209,-179.9342 311.7209,-179.9342"/>
</g>
<!-- A5 -->
<g id="node6" class="node">
<title>A5</title>
<polygon fill="none" stroke="#000000" points="782,-91 728,-91 728,-55 782,-55 782,-91"/>
<text text-anchor="middle" x="755" y="-70" font-family="Helvetica,sans-Serif" font-size="10.00" fill="#000000">h3</text>
</g>
<!-- A3&#45;&gt;A5 -->
<g id="edge5" class="edge">
<title>A3&#45;&gt;A5</title>
<path fill="none" stroke="#000000" d="M262.2564,-146C301.9987,-146 378.1806,-146 443,-146 443,-146 443,-146 547,-146 610.1987,-146 678.4135,-115.624 718.8755,-94.061"/>
<polygon fill="#000000" stroke="#000000" points="727.8101,-89.2011 721.1759,-97.9325 723.4179,-91.5903 719.0256,-93.9794 719.0256,-93.9794 719.0256,-93.9794 723.4179,-91.5903 716.8753,-90.0264 727.8101,-89.2011 727.8101,-89.2011"/>
</g>
<!-- A6 -->
<g id="node7" class="node">
<title>A6</title>
<polygon fill="none" stroke="#000000" points="470,-210 416,-210 416,-174 470,-174 470,-210"/>
<text text-anchor="middle" x="443" y="-189" font-family="Helvetica,sans-Serif" font-size="10.00" fill="#000000">f</text>
</g>
<!-- A4&#45;&gt;A6 -->
<g id="edge6" class="edge">
<title>A4&#45;&gt;A6</title>
<path fill="none" stroke="#000000" d="M366.0533,-192C378.1157,-192 392.5252,-192 405.5959,-192"/>
<polygon fill="#000000" stroke="#000000" points="415.7209,-192 405.7209,-196.5001 410.7209,-192 405.7209,-192.0001 405.7209,-192.0001 405.7209,-192.0001 410.7209,-192 405.7208,-187.5001 415.7209,-192 415.7209,-192"/>
</g>
<!-- A16 -->
<g id="node17" class="node">
<title>A16</title>
<polygon fill="none" stroke="#000000" points="886,-91 832,-91 832,-55 886,-55 886,-91"/>
<text text-anchor="middle" x="859" y="-70" font-family="Helvetica,sans-Serif" font-size="10.00" fill="#000000">H</text>
</g>
<!-- A5&#45;&gt;A16 -->
<g id="edge18" class="edge">
<title>A5&#45;&gt;A16</title>
<path fill="none" stroke="#000000" d="M792.1599,-73C805.2137,-73 819.6294,-73 831.7209,-73"/>
<polygon fill="none" stroke="#000000" points="792.0533,-69.5001 782.0533,-73 792.0533,-76.5001 792.0533,-69.5001"/>
</g>
<!-- A7 -->
<g id="node8" class="node">
<title>A7</title>
<polygon fill="none" stroke="#000000" points="574,-210 520,-210 520,-174 574,-174 574,-210"/>
<text text-anchor="middle" x="547" y="-189" font-family="Helvetica,sans-Serif" font-size="10.00" fill="#000000">g</text>
</g>
<!-- A6&#45;&gt;A7 -->
<g id="edge7" class="edge">
<title>A6&#45;&gt;A7</title>
<path fill="none" stroke="#000000" d="M470.0533,-192C482.1157,-192 496.5252,-192 509.5959,-192"/>
<polygon fill="#000000" stroke="#000000" points="519.7209,-192 509.7209,-196.5001 514.7209,-192 509.7209,-192.0001 509.7209,-192.0001 509.7209,-192.0001 514.7209,-192 509.7208,-187.5001 519.7209,-192 519.7209,-192"/>
</g>
<!-- A9 -->
<g id="node10" class="node">
<title>A9</title>
<polygon fill="none" stroke="#000000" points="262,-87 208,-87 208,-51 262,-51 262,-87"/>
<text text-anchor="middle" x="235" y="-66" font-family="Helvetica,sans-Serif" font-size="10.00" fill="#000000">c2</text>
</g>
<!-- A8&#45;&gt;A9 -->
<g id="edge9" class="edge">
<title>A8&#45;&gt;A9</title>
<path fill="none" stroke="#000000" d="M158.0533,-69C170.1157,-69 184.5252,-69 197.5959,-69"/>
<polygon fill="#000000" stroke="#000000" points="207.7209,-69 197.7209,-73.5001 202.7209,-69 197.7209,-69.0001 197.7209,-69.0001 197.7209,-69.0001 202.7209,-69 197.7208,-64.5001 207.7209,-69 207.7209,-69"/>
</g>
<!-- A10 -->
<g id="node11" class="node">
<title>A10</title>
<polygon fill="none" stroke="#000000" points="366,-87 312,-87 312,-51 366,-51 366,-87"/>
<text text-anchor="middle" x="339" y="-66" font-family="Helvetica,sans-Serif" font-size="10.00" fill="#000000">d2</text>
</g>
<!-- A9&#45;&gt;A10 -->
<g id="edge10" class="edge">
<title>A9&#45;&gt;A10</title>
<path fill="none" stroke="#000000" d="M262.0533,-69C274.1157,-69 288.5252,-69 301.5959,-69"/>
<polygon fill="#000000" stroke="#000000" points="311.7209,-69 301.7209,-73.5001 306.7209,-69 301.7209,-69.0001 301.7209,-69.0001 301.7209,-69.0001 306.7209,-69 301.7208,-64.5001 311.7209,-69 311.7209,-69"/>
</g>
<!-- A11 -->
<g id="node12" class="node">
<title>A11</title>
<polygon fill="none" stroke="#000000" points="470,-87 416,-87 416,-51 470,-51 470,-87"/>
<text text-anchor="middle" x="443" y="-66" font-family="Helvetica,sans-Serif" font-size="10.00" fill="#000000">e2</text>
</g>
<!-- A10&#45;&gt;A11 -->
<g id="edge11" class="edge">
<title>A10&#45;&gt;A11</title>
<path fill="none" stroke="#000000" d="M366.0533,-69C378.1157,-69 392.5252,-69 405.5959,-69"/>
<polygon fill="#000000" stroke="#000000" points="415.7209,-69 405.7209,-73.5001 410.7209,-69 405.7209,-69.0001 405.7209,-69.0001 405.7209,-69.0001 410.7209,-69 405.7208,-64.5001 415.7209,-69 415.7209,-69"/>
</g>
<!-- A12 -->
<g id="node13" class="node">
<title>A12</title>
<polygon fill="none" stroke="#000000" points="574,-118 520,-118 520,-82 574,-82 574,-118"/>
<text text-anchor="middle" x="547" y="-97" font-family="Helvetica,sans-Serif" font-size="10.00" fill="#000000">E</text>
</g>
<!-- A11&#45;&gt;A12 -->
<g id="edge12" class="edge">
<title>A11&#45;&gt;A12</title>
<path fill="none" stroke="#000000" d="M479.7725,-79.961C492.9281,-83.8824 507.5097,-88.2288 519.7209,-91.8687"/>
<polygon fill="none" stroke="#000000" points="480.6364,-76.5664 470.0533,-77.064 478.6368,-83.2748 480.6364,-76.5664"/>
</g>
<!-- A13 -->
<g id="node14" class="node">
<title>A13</title>
<polygon fill="none" stroke="#000000" points="574,-64 520,-64 520,-28 574,-28 574,-64"/>
<text text-anchor="middle" x="547" y="-43" font-family="Helvetica,sans-Serif" font-size="10.00" fill="#000000">f2</text>
</g>
<!-- A11&#45;&gt;A13 -->
<g id="edge13" class="edge">
<title>A11&#45;&gt;A13</title>
<path fill="none" stroke="#000000" d="M470.0533,-63.0171C482.1157,-60.3494 496.5252,-57.1627 509.5959,-54.2721"/>
<polygon fill="#000000" stroke="#000000" points="519.7209,-52.0329 510.9286,-58.5862 514.8388,-53.1126 509.9568,-54.1923 509.9568,-54.1923 509.9568,-54.1923 514.8388,-53.1126 508.9851,-49.7985 519.7209,-52.0329 519.7209,-52.0329"/>
</g>
<!-- A14 -->
<g id="node15" class="node">
<title>A14</title>
<polygon fill="none" stroke="#000000" points="678,-95 624,-95 624,-59 678,-59 678,-95"/>
<text text-anchor="middle" x="651" y="-74" font-family="Helvetica,sans-Serif" font-size="10.00" fill="#000000">h</text>
</g>
<!-- A13&#45;&gt;A14 -->
<g id="edge14" class="edge">
<title>A13&#45;&gt;A14</title>
<path fill="none" stroke="#000000" d="M574.0533,-54.064C586.2351,-57.6951 600.8107,-62.0397 613.9837,-65.9663"/>
<polygon fill="#000000" stroke="#000000" points="623.7209,-68.8687 612.8521,-70.3246 618.9292,-67.4404 614.1376,-66.0121 614.1376,-66.0121 614.1376,-66.0121 618.9292,-67.4404 615.423,-61.6996 623.7209,-68.8687 623.7209,-68.8687"/>
</g>
<!-- A15 -->
<g id="node16" class="node">
<title>A15</title>
<polygon fill="none" stroke="#000000" points="678,-41 624,-41 624,-5 678,-5 678,-41"/>
<text text-anchor="middle" x="651" y="-20" font-family="Helvetica,sans-Serif" font-size="10.00" fill="#000000">h2</text>
</g>
<!-- A13&#45;&gt;A15 -->
<g id="edge15" class="edge">
<title>A13&#45;&gt;A15</title>
<path fill="none" stroke="#000000" d="M574.0533,-40.0171C586.1157,-37.3494 600.5252,-34.1627 613.5959,-31.2721"/>
<polygon fill="#000000" stroke="#000000" points="623.7209,-29.0329 614.9286,-35.5862 618.8388,-30.1126 613.9568,-31.1923 613.9568,-31.1923 613.9568,-31.1923 618.8388,-30.1126 612.9851,-26.7985 623.7209,-29.0329 623.7209,-29.0329"/>
</g>
<!-- A15&#45;&gt;A0 -->
<g id="edge16" class="edge">
<title>A15&#45;&gt;A0</title>
<path fill="none" stroke="#000000" stroke-dasharray="5,2" d="M623.8494,-18.0659C584.2374,-11.3078 508.2145,0 443,0 235,0 235,0 235,0 166.5957,0 96.2195,-43.332 57.397,-71.7713"/>
<polygon fill="#000000" stroke="#000000" points="49.1445,-77.9431 54.4576,-68.3503 53.1486,-74.9486 57.1527,-71.954 57.1527,-71.954 57.1527,-71.954 53.1486,-74.9486 59.8478,-75.5577 49.1445,-77.9431 49.1445,-77.9431"/>
</g>
<!-- A15&#45;&gt;A5 -->
<g id="edge17" class="edge">
<title>A15&#45;&gt;A5</title>
<path fill="none" stroke="#000000" stroke-dasharray="5,2" d="M678.0533,-36.0064C690.3545,-41.9205 705.0968,-49.0081 718.3707,-55.3898"/>
<polygon fill="#000000" stroke="#000000" points="727.7209,-59.885 716.7585,-59.6077 723.2146,-57.7185 718.7083,-55.552 718.7083,-55.552 718.7083,-55.552 723.2146,-57.7185 720.6582,-51.4964 727.7209,-59.885 727.7209,-59.885"/>
</g>
</g>
</svg>
