<?xml version="1.0" encoding="UTF-8" standalone="no"?>
<!DOCTYPE svg PUBLIC "-//W3C//DTD SVG 1.1//EN"
 "http://www.w3.org/Graphics/SVG/1.1/DTD/svg11.dtd">
<!-- Generated by graphviz version 2.40.1 (20161225.0304)
 -->
<!-- Title: G Pages: 1 -->
<svg width="134pt" height="302pt"
 viewBox="0.00 0.00 134.34 302.00" xmlns="http://www.w3.org/2000/svg" xmlns:xlink="http://www.w3.org/1999/xlink">
<g id="graph0" class="graph" transform="scale(1 1) rotate(0) translate(4 298)">
<title>G</title>
<polygon fill="#ffffff" stroke="transparent" points="-4,4 -4,-298 130.342,-298 130.342,4 -4,4"/>
<!-- A0 -->
<g id="node1" class="node">
<title>A0</title>
<polygon fill="none" stroke="#000000" points="94.6267,-294 31.7153,-294 31.7153,-258 94.6267,-258 94.6267,-294"/>
<text text-anchor="middle" x="63.171" y="-273" font-family="Helvetica,sans-Serif" font-size="10.00" fill="#000000">activate</text>
</g>
<!-- A1 -->
<g id="node2" class="node">
<title>A1</title>
<polygon fill="none" stroke="#000000" points="98.3944,-208 27.9476,-208 27.9476,-172 98.3944,-172 98.3944,-208"/>
<text text-anchor="middle" x="63.171" y="-187" font-family="Helvetica,sans-Serif" font-size="10.00" fill="#000000">yuml.json</text>
</g>
<!-- A0&#45;&gt;A1 -->
<g id="edge1" class="edge">
<title>A0&#45;&gt;A1</title>
<path fill="none" stroke="#000000" d="M63.171,-257.7616C63.171,-246.3597 63.171,-231.4342 63.171,-218.494"/>
<polygon fill="#000000" stroke="#000000" points="63.171,-208.2121 67.6711,-218.2121 63.171,-213.2121 63.1711,-218.2121 63.1711,-218.2121 63.1711,-218.2121 63.171,-213.2121 58.6711,-218.2121 63.171,-208.2121 63.171,-208.2121"/>
</g>
<!-- A2 -->
<g id="node3" class="node">
<title>A2</title>
<polygon fill="none" stroke="#000000" points="126.5135,-122 -.1715,-122 -.1715,-86 126.5135,-86 126.5135,-122"/>
<text text-anchor="middle" x="63.171" y="-101" font-family="Helvetica,sans-Serif" font-size="10.00" fill="#000000">yuml&#45;parser.download</text>
</g>
<!-- A1&#45;&gt;A2 -->
<g id="edge2" class="edge">
<title>A1&#45;&gt;A2</title>
<path fill="none" stroke="#000000" d="M63.171,-171.7616C63.171,-160.3597 63.171,-145.4342 63.171,-132.494"/>
<polygon fill="#000000" stroke="#000000" points="63.171,-122.2121 67.6711,-132.2121 63.171,-127.2121 63.1711,-132.2121 63.1711,-132.2121 63.1711,-132.2121 63.171,-127.2121 58.6711,-132.2121 63.171,-122.2121 63.171,-122.2121"/>
</g>
<!-- A3 -->
<g id="node4" class="node">
<title>A3</title>
<polygon fill="none" stroke="#000000" points="102.173,-36 24.169,-36 24.169,0 102.173,0 102.173,-36"/>
<text text-anchor="middle" x="63.171" y="-15" font-family="Helvetica,sans-Serif" font-size="10.00" fill="#000000">yuml.watch</text>
</g>
<!-- A2&#45;&gt;A3 -->
<g id="edge3" class="edge">
<title>A2&#45;&gt;A3</title>
<path fill="none" stroke="#000000" d="M63.171,-85.7616C63.171,-74.3597 63.171,-59.4342 63.171,-46.494"/>
<polygon fill="#000000" stroke="#000000" points="63.171,-36.2121 67.6711,-46.2121 63.171,-41.2121 63.1711,-46.2121 63.1711,-46.2121 63.1711,-46.2121 63.171,-41.2121 58.6711,-46.2121 63.171,-36.2121 63.171,-36.2121"/>
</g>
</g>
</svg>
