<?xml version="1.0" encoding="UTF-8" standalone="no"?>
<!DOCTYPE svg PUBLIC "-//W3C//DTD SVG 1.1//EN"
 "http://www.w3.org/Graphics/SVG/1.1/DTD/svg11.dtd">
<!-- Generated by graphviz version 2.40.1 (20161225.0304)
 -->
<!-- Title: G Pages: 1 -->
<svg width="1042pt" height="100pt"
 viewBox="0.00 0.00 1041.70 100.00" xmlns="http://www.w3.org/2000/svg" xmlns:xlink="http://www.w3.org/1999/xlink">
<g id="graph0" class="graph" transform="scale(1 1) rotate(0) translate(4 96)">
<title>G</title>
<polygon fill="#ffffff" stroke="transparent" points="-4,4 -4,-96 1037.701,-96 1037.701,4 -4,4"/>
<!-- A0 -->
<g id="node1" class="node">
<title>A0</title>
<polygon fill="none" stroke="#000000" points="617.132,-50 563.132,-50 563.132,-14 617.132,-14 617.132,-50"/>
<text text-anchor="middle" x="590.132" y="-29" font-family="Helvetica,sans-Serif" font-size="10.00" fill="#000000">json</text>
</g>
<!-- A1 -->
<g id="node2" class="node">
<title>A1</title>
<polygon fill="none" stroke="#000000" points="425.132,-32 425.132,-64 513.132,-64 513.132,-32 425.132,-32"/>
<text text-anchor="start" x="434.683" y="-45" font-family="Helvetica,sans-Serif" font-size="10.00" fill="#000000">fs.readFileSync</text>
<polygon fill="none" stroke="#000000" points="425.132,0 425.132,-32 513.132,-32 513.132,0 425.132,0"/>
<text text-anchor="start" x="435.9235" y="-13" font-family="Helvetica,sans-Serif" font-size="10.00" fill="#000000">encoding=utf&#45;8</text>
</g>
<!-- A0&#45;&gt;A1 -->
<g id="edge1" class="edge">
<title>A0&#45;&gt;A1</title>
<path fill="none" stroke="#000000" d="M552.8898,-32C540.373,-32 526.2894,-32 513.2932,-32"/>
<polygon fill="none" stroke="#000000" points="552.9773,-35.5001 562.9772,-32 552.9772,-28.5001 552.9773,-35.5001"/>
</g>
<!-- A2 -->
<g id="node3" class="node">
<title>A2</title>
<polygon fill="none" stroke="#000000" points="375.3042,-50 288.6168,-50 288.6168,-14 375.3042,-14 375.3042,-50"/>
<text text-anchor="middle" x="331.9605" y="-29" font-family="Helvetica,sans-Serif" font-size="10.00" fill="#000000">fs.existsSync</text>
</g>
<!-- A1&#45;&gt;A2 -->
<g id="edge2" class="edge">
<title>A1&#45;&gt;A2</title>
<path fill="none" stroke="#000000" d="M414.7352,-32C401.7295,-32 388.0119,-32 375.5656,-32"/>
<polygon fill="none" stroke="#000000" points="414.9751,-35.5001 424.975,-32 414.975,-28.5001 414.9751,-35.5001"/>
</g>
<!-- A3 -->
<g id="node4" class="node">
<title>A3</title>
<polygon fill="none" stroke="#000000" points="146.289,-32 146.289,-64 239.289,-64 239.289,-32 146.289,-32"/>
<text text-anchor="start" x="173.8935" y="-45" font-family="Helvetica,sans-Serif" font-size="10.00" fill="#000000">path.join</text>
<polygon fill="none" stroke="#000000" points="146.289,0 146.289,-32 239.289,-32 239.289,0 146.289,0"/>
<text text-anchor="start" x="156.2505" y="-13" font-family="Helvetica,sans-Serif" font-size="10.00" fill="#000000">path1=yuml.json</text>
</g>
<!-- A2&#45;&gt;A3 -->
<g id="edge3" class="edge">
<title>A2&#45;&gt;A3</title>
<path fill="none" stroke="#000000" d="M278.3588,-32C265.416,-32 251.6857,-32 239.0829,-32"/>
<polygon fill="none" stroke="#000000" points="278.5332,-35.5001 288.5332,-32 278.5332,-28.5001 278.5332,-35.5001"/>
</g>
<!-- A4 -->
<g id="node5" class="node">
<title>A4</title>
<polygon fill="none" stroke="#000000" points="95.6837,-80 .1053,-80 .1053,-44 95.6837,-44 95.6837,-80"/>
<text text-anchor="middle" x="47.8945" y="-59" font-family="Helvetica,sans-Serif" font-size="10.00" fill="#000000">workspace.root</text>
</g>
<!-- A3&#45;&gt;A4 -->
<g id="edge4" class="edge">
<title>A3&#45;&gt;A4</title>
<path fill="none" stroke="#000000" d="M135.5742,-43.7833C122.4934,-46.501 108.7009,-49.3666 96.0259,-52"/>
<polygon fill="none" stroke="#000000" points="136.3293,-47.2012 145.4082,-41.7401 134.9053,-40.3476 136.3293,-47.2012"/>
</g>
<!-- A5 -->
<g id="node6" class="node">
<title>A5</title>
<polygon fill="none" stroke="#000000" points="1033.7591,-80 979.5269,-80 979.5269,-44 1033.7591,-44 1033.7591,-80"/>
<text text-anchor="middle" x="1006.643" y="-59" font-family="Helvetica,sans-Serif" font-size="10.00" fill="#000000">watch</text>
</g>
<!-- A6 -->
<g id="node7" class="node">
<title>A6</title>
<polygon fill="none" stroke="#000000" points="929.8124,-80 816.9046,-80 816.9046,-44 929.8124,-44 929.8124,-80"/>
<text text-anchor="middle" x="873.3585" y="-59" font-family="Helvetica,sans-Serif" font-size="10.00" fill="#000000">path.join:workflows</text>
</g>
<!-- A5&#45;&gt;A6 -->
<g id="edge5" class="edge">
<title>A5&#45;&gt;A6</title>
<path fill="none" stroke="#000000" d="M969.0907,-62C956.88,-62 943.0483,-62 929.7714,-62"/>
<polygon fill="none" stroke="#000000" points="969.3493,-65.5001 979.3493,-62 969.3492,-58.5001 969.3493,-65.5001"/>
</g>
<!-- A6&#45;&gt;A4 -->
<g id="edge8" class="edge">
<title>A6&#45;&gt;A4</title>
<path fill="none" stroke="#000000" d="M807.1143,-73.0112C749.8483,-81.5712 664.7651,-92 590.132,-92 590.132,-92 590.132,-92 331.9605,-92 248.5232,-92 152.0589,-79.0416 95.7315,-70.158"/>
<polygon fill="none" stroke="#000000" points="807.7588,-76.4535 817.1201,-71.4922 806.7081,-69.5328 807.7588,-76.4535"/>
</g>
<!-- A7 -->
<g id="node8" class="node">
<title>A7</title>
<polygon fill="none" stroke="#000000" points="667.132,-32 667.132,-64 767.132,-64 767.132,-32 667.132,-32"/>
<text text-anchor="start" x="677.13" y="-45" font-family="Helvetica,sans-Serif" font-size="10.00" fill="#000000">format.formatArgs</text>
<polygon fill="none" stroke="#000000" points="667.132,0 667.132,-32 767.132,-32 767.132,0 667.132,0"/>
<text text-anchor="start" x="676.984" y="-13" font-family="Helvetica,sans-Serif" font-size="10.00" fill="#000000">$workflows=path1</text>
</g>
<!-- A6&#45;&gt;A7 -->
<g id="edge7" class="edge">
<title>A6&#45;&gt;A7</title>
<path fill="none" stroke="#000000" d="M806.9084,-49.2397C793.6159,-46.6871 779.8624,-44.046 767.2346,-41.6211"/>
<polygon fill="none" stroke="#000000" points="806.4765,-52.7206 816.9571,-51.1693 807.7966,-45.8462 806.4765,-52.7206"/>
</g>
<!-- A7&#45;&gt;A0 -->
<g id="edge6" class="edge">
<title>A7&#45;&gt;A0</title>
<path fill="none" stroke="#000000" d="M656.9128,-32C643.0414,-32 628.9608,-32 617.328,-32"/>
<polygon fill="none" stroke="#000000" points="656.9383,-35.5001 666.9382,-32 656.9382,-28.5001 656.9383,-35.5001"/>
</g>
</g>
</svg>
