<?xml version="1.0" encoding="UTF-8" standalone="no"?>
<!DOCTYPE svg PUBLIC "-//W3C//DTD SVG 1.1//EN"
 "http://www.w3.org/Graphics/SVG/1.1/DTD/svg11.dtd">
<!-- Generated by graphviz version 2.40.1 (20161225.0304)
 -->
<!-- Title: G Pages: 1 -->
<svg width="788pt" height="215pt"
 viewBox="0.00 0.00 788.37 215.00" xmlns="http://www.w3.org/2000/svg" xmlns:xlink="http://www.w3.org/1999/xlink">
<g id="graph0" class="graph" transform="scale(1 1) rotate(0) translate(4 211)">
<title>G</title>
<polygon fill="#ffffff" stroke="transparent" points="-4,4 -4,-211 784.369,-211 784.369,4 -4,4"/>
<!-- A0 -->
<g id="node1" class="node">
<title>A0</title>
<polygon fill="none" stroke="#000000" points="189.2923,-110 118.7077,-110 118.7077,-74 189.2923,-74 189.2923,-110"/>
<text text-anchor="middle" x="154" y="-89" font-family="Helvetica,sans-Serif" font-size="10.00" fill="#000000">download</text>
</g>
<!-- A1 -->
<g id="node2" class="node">
<title>A1</title>
<polygon fill="none" stroke="#000000" points="339.3333,-138 253.8887,-138 253.8887,-102 339.3333,-102 339.3333,-138"/>
<text text-anchor="middle" x="296.611" y="-117" font-family="Helvetica,sans-Serif" font-size="10.00" fill="#000000">fs.mkdirSync</text>
</g>
<!-- A0&#45;&gt;A1 -->
<g id="edge1" class="edge">
<title>A0&#45;&gt;A1</title>
<path fill="none" stroke="#000000" d="M199.5504,-100.9433C216.9458,-104.3587 236.7037,-108.2379 253.8321,-111.6009"/>
<polygon fill="none" stroke="#000000" points="200.1059,-97.4856 189.6189,-98.9934 198.7572,-104.3545 200.1059,-97.4856"/>
</g>
<!-- A2 -->
<g id="node3" class="node">
<title>A2</title>
<polygon fill="none" stroke="#000000" points="329.9639,-80 263.2581,-80 263.2581,-44 329.9639,-44 329.9639,-80"/>
<text text-anchor="middle" x="296.611" y="-59" font-family="Helvetica,sans-Serif" font-size="10.00" fill="#000000">fetch.get</text>
</g>
<!-- A0&#45;&gt;A2 -->
<g id="edge2" class="edge">
<title>A0&#45;&gt;A2</title>
<path fill="none" stroke="#000000" d="M189.6189,-84.5071C208.9569,-80.4391 233.0131,-75.3786 253.4144,-71.0869"/>
<polygon fill="#000000" stroke="#000000" points="263.4014,-68.9861 254.542,-75.4483 258.5085,-70.0154 253.6156,-71.0447 253.6156,-71.0447 253.6156,-71.0447 258.5085,-70.0154 252.6892,-66.6411 263.4014,-68.9861 263.4014,-68.9861"/>
</g>
<!-- A7 -->
<g id="node8" class="node">
<title>A7</title>
<polygon fill="none" stroke="#000000" points="691.869,-32 691.869,-64 780.869,-64 780.869,-32 691.869,-32"/>
<text text-anchor="start" x="701.3705" y="-45" font-family="Helvetica,sans-Serif" font-size="10.00" fill="#000000">fs.writeFileSync</text>
<polygon fill="none" stroke="#000000" points="691.869,0 691.869,-32 780.869,-32 780.869,0 691.869,0"/>
<text text-anchor="start" x="712.608" y="-13" font-family="Helvetica,sans-Serif" font-size="10.00" fill="#000000">mode=755</text>
</g>
<!-- A0&#45;&gt;A7 -->
<g id="edge7" class="edge">
<title>A0&#45;&gt;A7</title>
<path fill="none" stroke="#000000" d="M178.4137,-73.7376C197.8037,-60.3488 226.1921,-43.1439 254,-35 403.3974,8.7527 590.2003,-9.5146 681.0984,-22.7573"/>
<polygon fill="#000000" stroke="#000000" points="691.1729,-24.2621 680.6178,-27.2353 686.2278,-23.5234 681.2826,-22.7847 681.2826,-22.7847 681.2826,-22.7847 686.2278,-23.5234 681.9475,-18.3341 691.1729,-24.2621 691.1729,-24.2621"/>
</g>
<!-- A3 -->
<g id="node4" class="node">
<title>A3</title>
<polygon fill="none" stroke="#000000" points="404.401,-123 404.401,-155 481.401,-155 481.401,-123 404.401,-123"/>
<text text-anchor="start" x="424.0055" y="-136" font-family="Helvetica,sans-Serif" font-size="10.00" fill="#000000">path.join</text>
<polygon fill="none" stroke="#000000" points="404.401,-91 404.401,-123 481.401,-123 481.401,-91 404.401,-91"/>
<text text-anchor="start" x="414.1415" y="-104" font-family="Helvetica,sans-Serif" font-size="10.00" fill="#000000">path1=.yuml/</text>
</g>
<!-- A1&#45;&gt;A3 -->
<g id="edge3" class="edge">
<title>A1&#45;&gt;A3</title>
<path fill="none" stroke="#000000" d="M349.5865,-121.0901C367.4944,-121.4586 387.1395,-121.8629 403.7267,-122.2042"/>
<polygon fill="none" stroke="#000000" points="349.6342,-117.5904 339.5643,-120.8839 349.4901,-124.589 349.6342,-117.5904"/>
</g>
<!-- A5 -->
<g id="node6" class="node">
<title>A5</title>
<polygon fill="none" stroke="#000000" points="495.7596,-73 389.0424,-73 389.0424,-37 495.7596,-37 495.7596,-73"/>
<text text-anchor="middle" x="442.401" y="-52" font-family="Helvetica,sans-Serif" font-size="10.00" fill="#000000">fetch.responseOk</text>
</g>
<!-- A2&#45;&gt;A5 -->
<g id="edge5" class="edge">
<title>A2&#45;&gt;A5</title>
<path fill="none" stroke="#000000" d="M330.0582,-60.3941C344.5387,-59.6988 361.9912,-58.8608 378.777,-58.0549"/>
<polygon fill="#000000" stroke="#000000" points="389.1099,-57.5587 379.3373,-62.5332 384.1156,-57.7986 379.1214,-58.0384 379.1214,-58.0384 379.1214,-58.0384 384.1156,-57.7986 378.9055,-53.5436 389.1099,-57.5587 389.1099,-57.5587"/>
</g>
<!-- A4 -->
<g id="node5" class="node">
<title>A4</title>
<polygon fill="none" stroke="#000000" points="641.2637,-171 545.6853,-171 545.6853,-135 641.2637,-135 641.2637,-171"/>
<text text-anchor="middle" x="593.4745" y="-150" font-family="Helvetica,sans-Serif" font-size="10.00" fill="#000000">workspace.root</text>
</g>
<!-- A3&#45;&gt;A4 -->
<g id="edge4" class="edge">
<title>A3&#45;&gt;A4</title>
<path fill="none" stroke="#000000" d="M490.9205,-132.635C508.4102,-136.108 528.1254,-140.0231 545.5628,-143.4858"/>
<polygon fill="none" stroke="#000000" points="491.4043,-129.1628 480.9141,-130.6479 490.0409,-136.0287 491.4043,-129.1628"/>
</g>
<!-- A6 -->
<g id="node7" class="node">
<title>A6</title>
<polygon fill="none" stroke="#000000" points="641.2218,-73 545.7272,-73 545.7272,-37 641.2218,-37 641.2218,-73"/>
<text text-anchor="middle" x="593.4745" y="-52" font-family="Helvetica,sans-Serif" font-size="10.00" fill="#000000">fetch.download</text>
</g>
<!-- A5&#45;&gt;A6 -->
<g id="edge6" class="edge">
<title>A5&#45;&gt;A6</title>
<path fill="none" stroke="#000000" d="M495.6639,-55C508.534,-55 522.3515,-55 535.4289,-55"/>
<polygon fill="#000000" stroke="#000000" points="545.7258,-55 535.7258,-59.5001 540.7258,-55 535.7258,-55.0001 535.7258,-55.0001 535.7258,-55.0001 540.7258,-55 535.7257,-50.5001 545.7258,-55 545.7258,-55"/>
</g>
<!-- A6&#45;&gt;A7 -->
<g id="edge8" class="edge">
<title>A6&#45;&gt;A7</title>
<path fill="none" stroke="#000000" d="M641.2859,-47.2773C654.1627,-45.1975 668.1875,-42.9321 681.3979,-40.7983"/>
<polygon fill="#000000" stroke="#000000" points="691.3088,-39.1975 682.1544,-45.2346 686.3728,-39.9948 681.4368,-40.7921 681.4368,-40.7921 681.4368,-40.7921 686.3728,-39.9948 680.7192,-36.3497 691.3088,-39.1975 691.3088,-39.1975"/>
</g>
<!-- A8 -->
<g id="node9" class="node">
<title>A8</title>
<polygon fill="none" stroke="#000000" points="54,-144 0,-144 0,-108 54,-108 54,-144"/>
<text text-anchor="middle" x="27" y="-123" font-family="Helvetica,sans-Serif" font-size="10.00" fill="#000000">run</text>
</g>
<!-- A8&#45;&gt;A0 -->
<g id="edge9" class="edge">
<title>A8&#45;&gt;A0</title>
<path fill="none" stroke="#000000" d="M63.9655,-116.1037C81.1822,-111.4945 101.572,-106.0358 118.5905,-101.4797"/>
<polygon fill="none" stroke="#000000" points="62.9994,-112.739 54.2447,-118.7061 64.8097,-119.5009 62.9994,-112.739"/>
</g>
<!-- A9 -->
<g id="node10" class="node">
<title>A9</title>
<polygon fill="none" stroke="#000000" points="104,-175 104,-207 204,-207 204,-175 104,-175"/>
<text text-anchor="start" x="113.998" y="-188" font-family="Helvetica,sans-Serif" font-size="10.00" fill="#000000">format.formatArgs</text>
<polygon fill="none" stroke="#000000" points="104,-143 104,-175 204,-175 204,-143 104,-143"/>
<text text-anchor="start" x="129.684" y="-156" font-family="Helvetica,sans-Serif" font-size="10.00" fill="#000000">$path=cwd</text>
</g>
<!-- A8&#45;&gt;A9 -->
<g id="edge10" class="edge">
<title>A8&#45;&gt;A9</title>
<path fill="none" stroke="#000000" d="M63.8308,-140.2103C76.2907,-145.0177 90.4247,-150.471 103.745,-155.6103"/>
<polygon fill="none" stroke="#000000" points="64.8343,-136.846 54.2447,-136.5117 62.3145,-143.3768 64.8343,-136.846"/>
</g>
<!-- A9&#45;&gt;A4 -->
<g id="edge11" class="edge">
<title>A9&#45;&gt;A4</title>
<path fill="none" stroke="#000000" d="M214.2762,-174.5096C282.5829,-173.6167 397.2144,-171.099 495.58,-164 511.7853,-162.8305 529.4443,-161.0141 545.2465,-159.1921"/>
<polygon fill="none" stroke="#000000" points="214.0874,-171.0115 204.1314,-174.6346 214.1738,-178.011 214.0874,-171.0115"/>
</g>
</g>
</svg>
